#!OML:ASF E:\Style6\Style6.ASF
:FULLY-SPECIFIED
:DEGREES
2301
root 1.24443 17.1893 0.155681 14.2493 -49.6529 -1.35464
lowerback 6.51384 -3.35473 3.83361
upperback 2.038 -4.20444 1.82218
thorax -1.67686 -2.11122 0.0673596
lowerneck 3.00122 -1.55714 1.49265
upperneck -12.0026 -2.64634 -4.50536
head -4.61403 -1.21024 -1.66395
rclavicle -1.89839e-014 -1.23246e-014
rhumerus 7.99602 18.681 -94.4923
rradius 137.392
rwrist 52.1989
rhand 30.6734 -6.57799
rfingers 7.12502
rthumb 54.3113 -25.2033
lclavicle -1.89839e-014 -1.23246e-014
lhumerus 4.22935 -19.738 93.0025
lradius 132.34
lwrist -31.9844
lhand 7.4419 36.9631
lfingers 7.12502
lthumb 32.6962 64.0269
rfemur -45.1151 16.101 13.222
rtibia 38.8723
rfoot 4.12906 20.2822
rtoes 23.0138
lfemur -31.237 27.061 -28.4012
ltibia 45.3069
lfoot -21.0248 22.4868
ltoes -10.8677
2302
root 1.24075 17.1926 0.159122 14.2021 -49.624 -1.28967
lowerback 6.62334 -3.3997 3.72555
upperback 1.88126 -4.25698 1.89412
thorax -1.88789 -2.14047 0.218658
lowerneck 3.18308 -1.51487 1.31754
upperneck -11.976 -2.59806 -4.50157
head -4.63547 -1.17574 -1.63274
rclavicle 3.8763e-015 2.18663e-014
rhumerus 7.6268 18.8925 -94.5432
rradius 137.524
rwrist 52.2163
rhand 30.6712 -6.61468
rfingers 7.12502
rthumb 54.3093 -25.2414
lclavicle 3.8763e-015 2.18663e-014
lhumerus 4.02512 -19.4596 93.1057
lradius 132.243
lwrist -32.0776
lhand 7.29762 36.8189
lfingers 7.12502
lthumb 32.5589 63.9112
rfemur -45.077 16.1035 13.1729
rtibia 38.8474
rfoot 4.1592 20.2415
rtoes 23.2363
lfemur -31.1653 26.9627 -28.4216
ltibia 45.2329
lfoot -21.0915 22.4722
ltoes -10.2928
2303
root 1.23643 17.1936 0.161452 14.2106 -49.5712 -1.28963
lowerback 6.67031 -3.4021 3.68181
upperback 1.78778 -4.25553 1.94903
thorax -2.00321 -2.14138 0.305842
lowerneck 3.27966 -1.51005 1.24258
upperneck -11.973 -2.59754 -4.51311
head -4.65267 -1.16996 -1.62297
rclavicle 9.20373e-014 -9.54166e-015
rhumerus 7.5011 18.8298 -94.4811
rradius 137.549
rwrist 52.1653
rhand 30.6844 -6.5691
rfingers 7.12502
rthumb 54.3212 -25.1876
lclavicle 9.20373e-014 -9.54166e-015
lhumerus 3.87399 -19.4664 93.1962
lradius 132.191
lwrist -32.2355
lhand 7.10377 36.8207
lfingers 7.12502
lthumb 32.3745 63.9509
rfemur -45.05 16.1152 13.1676
rtibia 38.8266
rfoot 4.18977 20.1771
rtoes 23.4053
lfemur -31.111 26.8771 -28.3975
ltibia 45.1628
lfoot -21.1263 22.4984
ltoes -10.3906
2304
root 1.23204 17.1956 0.16485 14.1967 -49.5422 -1.28615
lowerback 6.66704 -3.37836 3.69791
upperback 1.78559 -4.22319 1.93444
thorax -2.00515 -2.12531 0.278996
lowerneck 3.13974 -1.51046 1.34142
upperneck -11.8987 -2.59306 -4.5615
head -4.60015 -1.17242 -1.6574
rclavicle 4.64162e-014 6.75868e-015
rhumerus 7.67725 18.6418 -94.4257
rradius 137.421
rwrist 52.1148
rhand 30.6204 -6.56304
rfingers 7.12502
rthumb 54.2638 -25.2211
lclavicle 4.64162e-014 6.75868e-015
lhumerus 3.84293 -19.6577 93.2478
lradius 132.211
lwrist -32.3405
lhand 7.02606 36.9313
lfingers 7.12502
lthumb 32.3005 64.0765
rfemur -44.9906 16.0895 13.1912
rtibia 38.8024
rfoot 4.15423 20.1831
rtoes 23.202
lfemur -31.0305 26.8287 -28.374
ltibia 45.0878
lfoot -20.9451 22.6026
ltoes -11.0192
2305
root 1.22708 17.1998 0.169322 14.1718 -49.548 -1.28433
lowerback 6.59433 -3.36311 3.73546
upperback 1.80723 -4.20589 1.89683
thorax -1.94748 -2.11599 0.212607
lowerneck 3.12397 -1.50459 1.45389
upperneck -11.9302 -2.5851 -4.6173
head -4.61193 -1.17099 -1.69784
rclavicle -5.66536e-014 -1.90833e-014
rhumerus 7.77074 18.5022 -94.382
rradius 137.371
rwrist 51.9976
rhand 30.5525 -6.67735
rfingers 7.12502
rthumb 54.203 -25.3772
lclavicle -5.66536e-014 -1.90833e-014
lhumerus 3.87399 -19.7296 93.2167
lradius 132.211
lwrist -32.4267
lhand 7.02849 36.8977
lfingers 7.12502
lthumb 32.3028 64.0424
rfemur -44.9069 16.1118 13.2024
rtibia 38.7568
rfoot 4.01466 20.1975
rtoes 22.5173
lfemur -30.9285 26.8207 -28.3498
ltibia 45.009
lfoot -20.8865 22.6566
ltoes -11.0257
